HIERARCHY
ROOT Hips
{
	OFFSET -0.001795 -0.223333 0.028219
	CHANNELS 6 Xposition Yposition Zposition Zrotation Yrotation Xrotation 
	JOINT LeftUpLeg
	{
		OFFSET 0.069520 -0.091406 -0.006815
		CHANNELS 3 Zrotation Yrotation Xrotation
		JOINT LeftLeg
		{
			OFFSET 0.034277 -0.375199 -0.004496
			CHANNELS 3 Zrotation Yrotation Xrotation
			JOINT LeftFoot
			{
				OFFSET -0.013596 -0.397961 -0.043693
				CHANNELS 3 Zrotation Yrotation Xrotation
				JOINT LeftToe
				{
					OFFSET 0.026358 -0.055791 0.119288
					CHANNELS 3 Zrotation Yrotation Xrotation
					End Site
					{
						OFFSET 0.000000 0.000000 0.000000
					}
				}
			}
		}
	}
	JOINT RightUpLeg
	{
		OFFSET -0.067670 -0.090522 -0.004320
		CHANNELS 3 Zrotation Yrotation Xrotation
		JOINT RightLeg
		{
			OFFSET -0.038290 -0.382569 -0.008850
			CHANNELS 3 Zrotation Yrotation Xrotation
			JOINT RightFoot
			{
				OFFSET 0.015774 -0.398415 -0.042312
				CHANNELS 3 Zrotation Yrotation Xrotation
				JOINT RightToe
				{
					OFFSET -0.025372 -0.048144 0.123348
					CHANNELS 3 Zrotation Yrotation Xrotation
					End Site
					{
						OFFSET 0.000000 0.000000 0.000000
					}
				}
			}
		}
	}
	JOINT Spine
	{
		OFFSET -0.002533 0.108963 -0.026696
		CHANNELS 3 Zrotation Yrotation Xrotation
		JOINT Spine1
		{
			OFFSET 0.005487 0.135180 0.001092
			CHANNELS 3 Zrotation Yrotation Xrotation
			JOINT Spine2
			{
				OFFSET 0.001457 0.052922 0.025425
				CHANNELS 3 Zrotation Yrotation Xrotation
				JOINT Neck
				{
					OFFSET -0.002778 0.213870 -0.042857
					CHANNELS 3 Zrotation Yrotation Xrotation
					JOINT Head
					{
						OFFSET 0.005152 0.064970 0.051349
						CHANNELS 3 Zrotation Yrotation Xrotation
						End Site
						{
							OFFSET 0.000000 0.000000 0.000000
						}
					}
				}
				JOINT LeftShoulder
				{
					OFFSET 0.078845 0.121749 -0.034090
					CHANNELS 3 Zrotation Yrotation Xrotation
					JOINT LeftArm
					{
						OFFSET 0.090977 0.030469 -0.008868
						CHANNELS 3 Zrotation Yrotation Xrotation
						JOINT LeftForeArm
						{
							OFFSET 0.259612 -0.012772 -0.027456
							CHANNELS 3 Zrotation Yrotation Xrotation
							JOINT LeftHand
							{
								OFFSET 0.249234 0.008986 -0.001171
								CHANNELS 3 Zrotation Yrotation Xrotation
								End Site
								{
									OFFSET 0.000000 0.000000 0.000000
								}
							}
						}
					}
				}
				JOINT RightShoulder
				{
					OFFSET -0.081759 0.118833 -0.038615
					CHANNELS 3 Zrotation Yrotation Xrotation
					JOINT RightArm
					{
						OFFSET -0.096012 0.032551 -0.009143
						CHANNELS 3 Zrotation Yrotation Xrotation
						JOINT RightForeArm
						{
							OFFSET -0.253742 -0.013329 -0.021401
							CHANNELS 3 Zrotation Yrotation Xrotation
							JOINT RightHand
							{
								OFFSET -0.255298 0.007772 -0.005559
								CHANNELS 3 Zrotation Yrotation Xrotation
								End Site
								{
									OFFSET 0.000000 0.000000 0.000000
								}
							}
						}
					}
				}
			}
		}
	}
}
MOTION
Frames: 8
Frame Time: 0.050000
0.000000 0.997633 0.000000 -0.771098 1.025363 -2.373177 4.479387 -0.039537 -0.083831 -2.702583 0.467426 -23.546551 28.805711 22.742613 110.224580 0.000000 0.000000 0.000000 -4.266796 0.466429 -6.506586 0.991300 -0.677805 -17.760432 -37.213202 -24.483766 119.143048 0.000000 0.000000 0.000000 -1.196824 -0.277090 8.869525 3.064343 0.373147 -34.720859 0.807927 -0.701398 43.952424 -0.956674 3.788024 -87.450409 0.000000 0.000000 0.000000 -2.823948 -15.240164 5.559566 -30.962790 -11.859355 -3.596067 161.449186 10.589743 48.474619 0.000000 0.000000 0.000000 -2.761536 17.374966 5.319418 43.431885 5.627818 -5.538141 -166.794942 -23.250809 114.048601 0.000000 0.000000 0.000000 
-0.006841 0.995247 0.002942 -0.614239 0.371524 -1.412231 5.335971 -0.094511 -1.049350 -3.266883 0.454095 -23.849917 28.809953 22.779002 111.523335 0.000000 0.000000 0.000000 -5.010609 0.575625 -8.652895 2.248259 -0.553393 -15.560542 -37.391778 -24.049153 120.172578 0.000000 0.000000 0.000000 -1.187617 -0.245071 8.105199 2.948009 0.529480 -37.258372 2.104304 1.208992 45.993702 -2.295814 3.465414 -87.081782 0.000000 0.000000 0.000000 -2.988699 -17.101617 6.178876 -30.677134 -12.443905 -3.535576 162.642787 8.359857 40.238277 0.000000 0.000000 0.000000 -5.176020 14.066422 3.895349 44.188795 2.823942 -6.499281 -164.661980 -22.158986 105.462083 0.000000 0.000000 0.000000 
-0.014442 0.993603 0.006643 -0.051089 -0.621119 -1.368270 4.993174 -0.113081 -1.683207 -3.571874 0.479549 -22.374480 33.228163 23.198453 114.319421 0.000000 0.000000 0.000000 -4.561157 0.656254 -9.346801 1.952860 -0.522297 -14.909740 -37.567745 -23.220333 122.090864 0.000000 0.000000 0.000000 -1.442125 -0.233517 8.639962 2.870983 0.745283 -40.486342 1.937091 1.062118 49.216790 -7.957858 3.255726 -94.152536 0.000000 0.000000 0.000000 -0.872849 -15.830977 5.463556 -32.527843 -12.405641 -3.925852 161.850152 7.501720 36.008006 0.000000 0.000000 0.000000 -6.452760 16.974852 4.404009 42.748435 -0.092899 -7.472424 -161.175395 -23.949031 99.170341 0.000000 0.000000 0.000000 
-0.023109 0.993561 0.010867 0.166679 -0.290453 -1.846157 6.041806 -0.075508 -1.056215 -5.154729 0.312542 -23.798112 33.568802 22.857891 115.610281 0.000000 0.000000 0.000000 -4.647317 0.609579 -8.841064 3.303859 -0.497987 -15.136681 -43.599817 -23.373864 124.313701 0.000000 0.000000 0.000000 -1.854256 -0.196740 8.236334 3.692821 0.639198 -40.326178 1.082834 0.618808 49.610127 -6.537792 3.566122 -91.896866 0.000000 0.000000 0.000000 0.055688 -14.808131 4.976064 -30.820040 -9.225227 -4.417244 158.770631 9.721814 40.236067 0.000000 0.000000 0.000000 -9.157881 17.170886 3.967227 42.497381 -1.973058 -7.982869 -154.385786 -23.305943 82.457028 0.000000 0.000000 0.000000 
-0.032417 0.994461 0.016124 0.462080 -0.014551 -2.614512 5.741541 -0.038864 -0.365920 -4.714523 0.349523 -22.491030 35.727303 23.043958 115.288488 0.000000 0.000000 0.000000 -3.685982 0.582597 -7.773189 2.452597 -0.521278 -14.823344 -46.695657 -24.310298 122.612968 0.000000 0.000000 0.000000 -1.631095 -0.228739 8.616875 3.024758 0.698065 -40.517113 1.301198 0.275982 50.003164 -7.147224 3.606808 -90.641276 0.000000 0.000000 0.000000 1.172649 -14.153921 4.583407 -27.611384 -6.519400 -4.540271 154.875576 7.615656 27.153691 0.000000 0.000000 0.000000 -10.711931 16.619586 3.523781 40.994298 -3.318139 -8.172034 -151.516362 -19.842283 68.675790 0.000000 0.000000 0.000000 
-0.041664 0.996454 0.021755 1.108892 0.498823 -2.829829 5.289640 0.010882 0.774805 -4.677682 0.320627 -23.197657 34.678214 22.829967 114.997187 0.000000 0.000000 0.000000 -3.576637 0.511018 -6.748991 2.092534 -0.562132 -15.878111 -46.009013 -24.251034 123.063220 0.000000 0.000000 0.000000 -2.222330 -0.182852 8.288001 2.734600 0.733774 -41.202868 1.742875 -0.471136 50.931204 -8.940033 3.709826 -89.288125 0.000000 0.000000 0.000000 3.355486 -13.566239 4.041026 -25.392568 -2.566436 -4.840381 151.083547 8.854243 27.344654 0.000000 0.000000 0.000000 -14.163028 15.248685 2.624014 40.767505 -5.784897 -8.889144 -146.344845 -18.406317 57.718174 0.000000 0.000000 0.000000 
-0.050090 0.998968 0.027552 1.239754 0.203488 -3.030784 5.753435 0.036282 1.333589 -4.896302 0.309748 -23.901585 35.981084 22.927643 115.652863 0.000000 0.000000 0.000000 -2.981513 0.483067 -6.001380 2.103600 -0.558320 -16.095824 -44.700015 -23.973515 123.100533 0.000000 0.000000 0.000000 -2.132310 -0.193176 8.517834 2.227644 0.858183 -42.600777 1.979868 -1.034637 52.078642 -10.216392 3.823964 -89.435182 0.000000 0.000000 0.000000 4.923643 -11.390178 3.125794 -20.575080 1.810491 -4.502435 141.452471 14.221540 32.687925 0.000000 0.000000 0.000000 -15.055433 13.379220 2.170610 36.533754 -7.877151 -8.669839 -139.423700 -19.057326 49.905305 0.000000 0.000000 0.000000 
-0.056751 1.003130 0.033136 1.594402 -1.950736 -2.939550 5.574656 0.063786 1.187182 -3.839092 0.537376 -22.958930 33.943217 23.546367 115.313135 0.000000 0.000000 0.000000 -2.771146 0.464473 -5.488099 3.590783 -0.440095 -16.760889 -48.897895 -24.135011 121.678455 0.000000 0.000000 0.000000 -2.558794 -0.134315 7.725994 2.803652 0.908629 -41.915492 3.133829 0.212145 52.225080 -11.011790 3.899382 -87.653697 0.000000 0.000000 0.000000 7.647661 -9.485659 2.216289 -17.004272 8.230649 -4.253218 126.346129 20.590371 33.555027 0.000000 0.000000 0.000000 -17.750886 9.960365 1.157250 32.056486 -11.662252 -8.397885 -128.209989 -21.103785 42.768519 0.000000 0.000000 0.000000 
